<svg xmlns="http://www.w3.org/2000/svg" width="247.025" height="196.032" viewBox="0 0 247.025 196.032">
  <g id="mariadb-vector-logo" transform="translate(-305.9 -117.1)">
    <path id="Path_394" data-name="Path 394" d="M20.9,370.1c5.6-7,13-5.3,20.3-4.5,5.3.7,10.4,2,15.8,2,3.4.1,5.6-1.3,7.8-3.7,4.2-4.6,7.2-10.1,11.6-14.5a63.913,63.913,0,0,1,24.9-15.5c16.1-5.6,32.6-10.1,48.5-16.5a60.9,60.9,0,0,0,30.8-26.9c4.7-8.2,9.3-16.5,15.1-24.1,7.9-10,18.1-15.2,30.8-15.1,6.7.1,12.5-2.8,18.4-5.2h1.5c2.5.9,3.3,2.9,3.3,5.4,0,6.8-2.3,12.7-7.5,17.1-3.5,2.9-7.2,5.6-10.9,8.2a23.75,23.75,0,0,0-9.7,14.4c-2.9,12.5-5.2,25.2-9.2,37.6-3.5,11-7.8,21.6-16,30.3a33.686,33.686,0,0,1-8.7,6.7c-1.9.9-2.9.9-2.6-1.6a18.938,18.938,0,0,0-.2-5.8c-1.1,2.4-2.1,4.7-3.2,7.1-7.4,15-18.3,25.6-35,29.4a1.854,1.854,0,0,1-.7.2c-1.9.2-4.5,1.2-5.4-.2-1.1-1.8,1.7-2.9,2.7-4.3,8-10.3,13.6-21.5,14.7-34.8-1.2-.1-1.1.9-1.3,1.4a9.625,9.625,0,0,0-.7,1.8c-1.1,3-2,6-3.7,8.7a8.368,8.368,0,0,1-7.4,4.3,155.992,155.992,0,0,1-25.6-2,107.669,107.669,0,0,0-22.7-1c-8.6.6-16.1,4.5-23,9.2A176.209,176.209,0,0,1,48.4,392a76.064,76.064,0,0,1-12.2,4.1H27.1c-1.3-2-.7-3.9.4-5.6,1.6-2.4,3.2-4.8,4.9-7.1.9-1.2,1.8-2.4,0-3.5-4-2.4-7.1-6.1-11.4-8A12.131,12.131,0,0,1,20.9,370.1Z" transform="translate(285 -129)" fill="#033545"/>
    <g id="Group_69" data-name="Group 69" transform="translate(67.975 -19.872)">
      <path id="Path_395" data-name="Path 395" d="M602.474,324.061c-1.612,5.87-4.257,7.934-10.385,8.514-6.9.581-13.868.129-20.769.323-1.612.065-2.387-.581-2.322-2.322.065-10.449.065-20.9,0-31.283,0-1.29.323-2.258,1.871-2.258,7.418.129,14.9-.581,22.253.452,6,.839,9.03,5.1,7.869,10.965-.516,2.58-2.064,4.322-5.031,5.483,4.128,1.29,5.805,4.064,6.515,7.611Q602.474,322.9,602.474,324.061Zm-20.382,5.225a54.911,54.911,0,0,0,9.224-.387c3.677-.581,5.612-2.451,5.741-5.87.129-3.87-1.419-6-5.289-6.708-5.483-.967-11.03-.258-16.577-.387-1.226-.064-1.419.839-1.419,1.806,0,3.161.064,6.386,0,9.482-.065,1.484.516,2.064,2,2C577.835,329.221,579.963,329.285,582.092,329.285Zm.9-17.028v-.129c2.516,0,5.031.129,7.611-.065,4-.323,5.805-2.645,5.418-6.579-.323-3.032-2.258-4.644-6.063-4.773-4.773-.129-9.482-.065-14.19-.065-1.29,0-2,.387-2,1.806.065,2.645.065,5.225,0,7.869-.064,1.548.774,2,2.129,1.935Z" transform="translate(-117.525 -0.255)" fill="#033545"/>
      <path id="Path_396" data-name="Path 396" d="M250.874,308.984c-1.484,5.805-2.9,11.481-4.322,17.157-.194.839-.387,1.548-.581,2.387-1.1,4.58-1.1,4.451-5.87,4.322-2.129-.064-2.451-.839-2-2.709,2.322-8.772,4.58-17.48,6.773-26.317.258-.968.516-1.871.774-2.838,1.032-4.257,1.032-4.128,5.354-4.128,1.871,0,2.516,1.032,3.161,2.451,3.225,7.289,6.579,14.577,9.869,21.866.258.581.323,1.29,1.29,1.742,1.613-3.548,3.161-7.1,4.773-10.643,2-4.451,4.128-8.9,6-13.416,1.226-2.9,3.612-1.871,5.676-2,2-.129,2.064,1.548,2.387,2.838,2.645,10.127,5.225,20.253,7.869,30.316.581,2.129,0,2.9-2.129,2.709a4.849,4.849,0,0,0-.967,0c-3.806,0-3.806,0-4.644-3.612L280.028,311.5a4.737,4.737,0,0,0-.9-2.322,6.864,6.864,0,0,0-1.742,2.9c-2.774,6.063-5.612,12.126-8.192,18.318-.968,2.258-2.516,2.322-4.515,2.451a3.53,3.53,0,0,1-3.87-2.516c-2.709-6.386-5.612-12.642-8.514-18.963A3.632,3.632,0,0,0,250.874,308.984Z" transform="translate(0 -0.207)" fill="#033545"/>
      <path id="Path_397" data-name="Path 397" d="M348.177,314.186c.645-.967-.129-2.516,1.419-2.709,1.806-.193,3.741-.581,5.483.323.645.323.516,1.161.516,1.742,0,7.353,0,14.642.064,22.059,0,1.548-.645,2.258-2.193,2.258h-1.742c-2,.129-3.677-.065-3.354-2.838-8.772,4.709-16.512,3.87-21.027-2.129a14.7,14.7,0,0,1,.452-17.931C331.536,310.831,340.888,308.7,348.177,314.186Zm-7.74,2.193c-4.9,0-8.256,3.29-8.192,8.063a7.958,7.958,0,0,0,8.321,8.321c4.838,0,8.063-3.161,8.063-8.127C348.629,319.539,345.468,316.379,340.437,316.379Z" transform="translate(-30.738 -5.215)" fill="#033545"/>
      <path id="Path_398" data-name="Path 398" d="M463.581,314.16c.645-.774-.129-2.322,1.29-2.516,1.871-.258,3.741-.516,5.483.193.709.323.581,1.1.581,1.742v22.253c0,1.484-.581,2.129-2,2.129h-2c-1.871,0-3.87.194-3.161-2.9-7.934,4.773-16,4.128-20.7-1.419-4.257-4.9-4.451-13.029-.452-17.931C447.391,310.032,455.131,309.452,463.581,314.16Zm-7.676,2.258c-5.031-.065-8.385,3.29-8.321,8.192a8.136,8.136,0,0,0,8.192,8.256c4.967.065,8.385-3.225,8.45-8.127S460.872,316.482,455.9,316.418Z" transform="translate(-71.642 -5.255)" fill="#033545"/>
      <path id="Path_399" data-name="Path 399" d="M503.1,314.807V299.649c0-1.484.194-2.645,2.064-2.58,6.386.194,12.771-.452,19.092.387,9.675,1.355,15.674,8.514,15.351,18.06-.323,9.74-6.708,16.254-16.383,17.093-5.87.516-11.739.129-17.609.323-1.742.065-2.451-.645-2.451-2.451C503.164,325.256,503.1,320.031,503.1,314.807Zm5.1-.065v12c0,1.032,0,2.193,1.354,2.193,4.967,0,9.933.71,14.9-.452,6.708-1.613,10-7.1,9.482-15.287-.387-6.45-4.451-10.9-10.836-12-4.193-.71-8.45-.258-12.707-.452-1.742-.129-2.322.581-2.258,2.258C508.26,306.873,508.2,310.872,508.2,314.742Z" transform="translate(-94.133 -0.29)" fill="#033545"/>
      <path id="Path_400" data-name="Path 400" d="M392.2,315.282c3.1-3.354,6.45-5.1,10.9-4.128.968.193,2.258.258,1.806,1.677-.452,1.548-.065,3.612-2.387,4.064a5.43,5.43,0,0,1-1.742-.129c-4.967-.323-8.579,2.709-8.772,7.676-.129,3.483-.129,7.031-.065,10.514.065,2-.645,2.9-2.774,2.9-4.709.065-4.709.129-4.709-4.644,0-6.386.064-12.771-.065-19.092-.065-2.193.774-3.032,2.9-2.774h.774C391.751,311.347,391.751,311.347,392.2,315.282Z" transform="translate(-51.995 -5.215)" fill="#033545"/>
      <path id="Path_401" data-name="Path 401" d="M421.062,322.677c0-2.838.065-5.741-.065-8.579-.064-2,.774-2.709,2.645-2.516h.774c4.128-.065,4.128,0,4.128,4v13.932c0,1.29-.065,2.322,1.742,2.967,1.548.581,1.354,2.774,1.354,4.322,0,1.29-1.29,1.226-2.258,1.355-5.1.967-7.869-1.032-8.256-6.257-.258-2.967-.065-6.063-.065-9.224Z" transform="translate(-64.986 -5.451)" fill="#033545"/>
      <path id="Path_402" data-name="Path 402" d="M424.541,296.2a3.579,3.579,0,0,1,3.935,3.612,3.762,3.762,0,0,1-3.87,3.87,3.674,3.674,0,0,1-3.806-3.87A3.523,3.523,0,0,1,424.541,296.2Z" transform="translate(-64.918)" fill="#24525e"/>
    </g>
  </g>
</svg>
