<?xml version="1.0" encoding="UTF-8"?>
<svg width="1756px" height="1193px" viewBox="0 0 1756 1193" version="1.1" xmlns="http://www.w3.org/2000/svg" xmlns:xlink="http://www.w3.org/1999/xlink">
    <title>Group</title>
    <g id="Page-1" stroke="none" stroke-width="1" fill="none" fill-rule="evenodd">
        <g id="Group" transform="translate(0.639024, 0.813303)" fill-rule="nonzero">
            <path d="M421.708492,1085.22877 L354.026398,1085.22877 C351.633002,970.98663 345.041355,863.584629 334.264534,762.944297 L333.662916,762.944297 L230.61611,1085.22877 L179.086167,1085.22877 L76.6540588,762.944297 L76.0655189,762.944297 C68.4668142,859.569479 63.6800226,966.997637 61.6920654,1085.22877 L0,1085.22877 C3.97591433,941.455004 13.9680148,806.666276 29.9370655,680.849514 L113.823626,680.849514 L211.455865,977.983717 L212.057483,977.983717 L310.29134,680.849514 L390.555111,680.849514 C408.132837,828.219917 418.517298,963.021723 421.708492,1085.22877 M715.232983,786.878255 C687.676235,936.419717 651.317545,1045.07727 606.196149,1112.90323 C571.040696,1165.11326 532.524026,1191.24444 490.580745,1191.24444 C479.398486,1191.24444 465.600494,1187.87014 449.252162,1181.17386 L449.252162,1145.11598 C457.243227,1146.26691 466.62063,1146.92084 477.39745,1146.92084 C496.989291,1146.92084 512.736005,1141.53243 524.74222,1130.72945 C539.102594,1117.57231 546.282782,1102.78034 546.282782,1086.41893 C546.282782,1075.19744 540.685113,1052.25746 529.515932,1017.52052 L455.242191,786.865177 L521.734126,786.865177 L575.042767,959.372775 C587.022825,998.543379 592.018875,1025.89087 590.017839,1041.46756 C619.170185,963.610263 639.533667,878.716645 651.134443,786.852098 L715.232983,786.852098 L715.232983,786.878255 L715.232983,786.878255 Z" id="Shape" fill="#5D87A1"></path>
            <path d="M1616.15686,1085.22877 L1423.90048,1085.22877 L1423.90048,680.849514 L1488.57448,680.849514 L1488.57448,1035.45137 L1616.15686,1035.45137 L1616.15686,1085.22877 Z M1373.57377,1094.99854 L1299.23464,1058.31288 C1305.82628,1052.89831 1312.1302,1047.03907 1317.80634,1040.25124 C1349.4044,1003.13399 1365.16419,948.242831 1365.16419,875.538529 C1365.16419,741.756859 1312.66643,674.833328 1207.63166,674.833328 C1156.12788,674.833328 1115.95022,691.809435 1087.21639,725.77473 C1055.64449,762.91814 1039.8847,817.613119 1039.8847,889.925061 C1039.8847,961.007609 1053.85271,1013.15225 1081.80182,1046.22819 C1107.37061,1076.19142 1145.91344,1091.19265 1197.45646,1091.19265 C1216.6821,1091.19265 1234.32522,1088.83849 1250.3989,1084.09093 L1347.18102,1140.43382 L1373.57377,1094.99854 Z M1132.7563,1004.31107 C1116.38181,977.970638 1108.19457,935.674233 1108.19457,877.356464 C1108.19457,775.539052 1139.12561,724.571493 1201.05309,724.571493 C1233.42279,724.571493 1257.14749,736.760809 1272.31874,761.087127 C1288.66707,787.466795 1296.89356,829.383918 1296.89356,886.890811 C1296.89356,989.545257 1265.93635,1040.87903 1204.04811,1040.87903 C1171.66533,1040.8921 1147.94063,1028.74202 1132.7563,1004.31107 M1011.70017,973.14461 C1011.70017,1007.43687 999.118498,1035.56908 973.981303,1057.60663 C948.81795,1079.55263 915.074993,1090.55179 872.791667,1090.55179 C833.241783,1090.55179 794.895135,1077.9178 757.777882,1052.7806 L775.159429,1018.05675 C807.09753,1034.05196 836.01446,1042.00378 861.975611,1042.00378 C886.341165,1042.00378 905.383702,1036.6023 919.194773,1025.89087 C932.992765,1015.14021 941.219246,1000.0605 941.219246,980.99181 C941.219246,956.966301 924.465475,936.432796 893.730611,919.234351 C865.389143,903.670739 808.706206,871.131019 808.706206,871.131019 C777.984421,848.740344 762.60391,824.701756 762.60391,785.099557 C762.60391,752.324421 774.0739,725.866281 797.026958,705.738214 C820.006173,685.531676 849.655508,675.461104 886.00112,675.461104 C923.53689,675.461104 957.659128,685.518597 988.393992,705.424326 L972.804223,740.161262 C946.516105,728.992082 920.568033,723.407491 894.973084,723.407491 C874.243399,723.407491 858.235113,728.390463 847.105168,738.395642 C835.883673,748.361585 828.965059,761.113284 828.965059,776.755368 C828.965059,800.663169 846.071954,821.458247 877.643852,838.996738 C906.364602,854.586507 964.460034,887.68861 964.460034,887.68861 C995.96654,910.040049 1011.70017,933.856299 1011.70017,973.14461" id="Shape" fill="#F8981D"></path>
            <path d="M1697.34922,545.406853 C1658.24401,544.412875 1627.9669,548.349553 1602.55505,559.100216 C1595.21792,562.029837 1583.55175,562.029837 1582.53161,571.302611 C1586.49445,575.226211 1586.9522,581.556285 1590.39189,586.970852 C1596.25113,596.740616 1606.46557,609.884674 1615.79066,616.737895 C1626.03125,624.585095 1636.31108,632.353822 1647.0879,639.193964 C1666.09121,650.951684 1687.63177,657.791826 1706.15116,669.510311 C1716.94106,676.324295 1727.66556,685.139316 1738.46854,692.476447 C1743.77848,696.386968 1747.17893,702.730121 1754.07139,705.175832 L1754.07139,703.684864 C1750.61862,699.290432 1749.63772,692.934201 1746.25035,688.04278 L1731.57608,673.891664 C1717.39881,654.849127 1699.78185,638.226143 1680.77855,624.572016 C1665.13646,613.795195 1630.92267,599.14709 1624.57952,581.124689 L1623.58554,580.13071 C1634.33621,579.123653 1647.0879,575.226211 1657.30234,572.231196 C1673.92533,567.849843 1689.0835,568.843822 1706.13808,564.462469 C1713.98528,562.500669 1721.76708,560.04188 1729.64044,557.622327 L1729.64044,553.214817 C1720.79926,544.412875 1714.49535,532.720548 1705.19642,524.402516 C1680.32079,502.914269 1652.90791,481.896853 1624.57952,464.306048 C1609.40827,454.510128 1589.8949,448.206211 1573.74275,439.875101 C1567.92274,436.932401 1558.11374,435.480669 1554.68713,430.589248 C1545.92443,419.838585 1540.99377,405.687469 1534.63754,392.961927 C1520.51258,366.111427 1506.79306,336.318227 1494.60374,307.924444 C1485.78872,288.881907 1480.42647,269.865527 1469.67581,252.248565 C1419.32294,169.199038 1364.64104,118.898491 1280.59754,69.5265283 C1262.5359,59.2466971 1241.04765,54.8653442 1218.0946,49.476934 L1181.4351,47.5412914 C1173.61405,44.1146811 1165.77993,34.8157499 1158.95287,30.4213182 C1131.06915,12.8435917 1059.28036,-25.254561 1038.77301,25.0459867 C1025.56356,56.8402227 1058.31254,88.0982333 1069.56019,104.224228 C1077.86514,115.419566 1088.62889,128.158186 1094.43581,140.870649 C1097.8755,149.175601 1098.84332,157.990622 1102.28301,166.766407 C1110.10405,188.267733 1117.41503,212.188612 1127.69486,232.251285 C1133.05711,242.478802 1138.90328,253.229465 1145.7565,262.48916 C1149.6801,267.903727 1156.50716,270.297123 1157.99813,279.125222 C1151.18414,288.85575 1150.64792,303.543091 1146.7374,315.758565 C1129.15967,370.963612 1136.02597,439.351954 1160.94083,479.921975 C1168.73571,492.137448 1187.33357,519.027185 1212.2092,508.721196 C1234.23367,499.932333 1229.35533,472.087854 1235.6854,447.669986 C1237.13713,441.771507 1236.18239,437.900222 1239.11201,434.028937 L1239.11201,434.98368 C1245.926,448.650885 1252.80537,461.821102 1259.12237,475.527543 C1274.28054,499.448422 1300.67329,524.376359 1322.65853,540.947028 C1334.36393,549.788206 1343.63671,564.907144 1358.29789,570.308632 L1358.29789,568.843822 L1357.33007,568.843822 C1354.36121,564.462469 1350.01909,562.500669 1346.12165,559.100216 C1337.30663,550.298274 1327.54995,539.547611 1320.70981,529.790927 C1300.22862,502.41728 1282.10158,472.114011 1266.01483,440.842922 C1258.14147,425.67167 1251.35364,409.087922 1245.01049,393.942827 C1242.05471,388.096664 1242.05471,379.281643 1237.15021,376.338944 C1229.8,387.076528 1219.08857,396.375459 1213.72632,409.532597 C1204.42739,430.57617 1203.45957,456.458849 1200.0068,483.374742 L1198.08424,484.316406 C1182.52063,480.405885 1177.10606,464.306048 1171.1945,450.638843 C1156.55947,415.928064 1154.10068,360.212949 1166.80007,320.166075 C1170.20052,309.92548 1184.91402,277.673491 1179.0417,267.916806 C1176.099,258.56556 1166.31616,253.242543 1160.95391,245.879255 C1154.64999,236.619559 1147.74445,224.901075 1143.35002,214.621244 C1131.63154,187.273754 1125.73306,156.970486 1113.11215,129.636075 C1107.21367,116.897455 1096.97307,103.71416 1088.6812,91.982597 C1079.36919,78.7993021 1069.12859,69.5134496 1061.76531,53.8844442 C1059.33267,48.5091127 1055.91914,39.7202494 1059.82966,33.8740859 C1060.78441,29.9504863 1062.77236,28.4856757 1066.66981,27.5047758 C1072.99988,22.1556016 1091.08767,28.9565077 1097.43083,31.8992074 C1115.54478,39.2232602 1130.68987,46.0634022 1145.80881,56.317076 C1152.64895,61.2215756 1159.98608,70.5074282 1168.76187,72.9531386 L1179.0417,72.9531386 C1194.64455,76.3535917 1212.23535,73.8948025 1226.92269,78.3153915 C1252.80537,86.6334228 1276.25542,98.8358178 1297.28592,112.006034 C1361.27983,152.589133 1414.05224,210.25297 1449.67853,279.125222 C1455.52469,290.346718 1458.00964,300.626549 1463.34573,312.331954 C1473.63864,336.29207 1486.36418,360.723017 1496.57862,384.173064 C1506.84537,407.126122 1516.62822,430.563091 1531.2894,449.631785 C1538.60037,459.885459 1567.97506,465.260791 1581.14527,470.636122 C1590.88888,475.017475 1606.06013,478.914918 1614.84899,484.290249 C1631.47198,494.530844 1648.02957,506.288565 1663.65857,517.549296 C1671.44038,523.408538 1695.89748,535.624011 1697.34922,545.406853 M1198.97359,120.821055 C1192.22832,120.750942 1185.50367,121.57778 1178.97631,123.279844 L1178.97631,124.260744 L1179.91797,124.260744 C1183.85465,132.068707 1190.69479,137.483274 1195.57313,144.297259 C1199.50981,152.13138 1202.92334,159.900107 1206.78155,167.721149 L1207.72321,166.753328 C1214.61567,161.874986 1218.04228,154.053944 1218.04228,142.322381 C1215.07342,138.869613 1214.61567,135.495317 1212.1438,132.068707 C1209.2665,127.177286 1202.92334,124.744654 1198.97359,120.821055" id="Shape" fill="#5D87A1"></path>
            <path d="M1743.88311,1085.16338 L1754.006,1085.16338 L1754.006,1035.6214 L1738.82166,1035.6214 L1726.43617,1069.42975 L1712.97822,1035.6214 L1698.35627,1035.6214 L1698.35627,1085.16338 L1707.91678,1085.16338 L1707.91678,1047.47067 L1708.453,1047.47067 L1722.5518,1085.16338 L1729.83662,1085.16338 L1743.88311,1047.47067 L1743.88311,1085.16338 Z M1662.33763,1085.16338 L1673.04906,1085.16338 L1673.04906,1044.0179 L1687.06938,1044.0179 L1687.06938,1035.60832 L1647.72876,1035.60832 L1647.72876,1044.0179 L1662.31147,1044.0179 L1662.33763,1085.16338 Z" id="Shape" fill="#F8981D"></path>
        </g>
    </g>
</svg>